<svg part="file-icon" viewBox="0 0 24 24" fill="none" xmlns="http://www.w3.org/2000/svg">
<path d="M15 22.75H9C3.57 22.75 1.25 20.43 1.25 15V9C1.25 3.57 3.57 1.25 9 1.25H14C14.41 1.25 14.75 1.59 14.75 2C14.75 2.41 14.41 2.75 14 2.75H9C4.39 2.75 2.75 4.39 2.75 9V15C2.75 19.61 4.39 21.25 9 21.25H15C19.61 21.25 21.25 19.61 21.25 15V10C21.25 9.59 21.59 9.25 22 9.25C22.41 9.25 22.75 9.59 22.75 10V15C22.75 20.43 20.43 22.75 15 22.75Z"/>
<path d="M22 10.75H18C14.58 10.75 13.25 9.41999 13.25 5.99999V1.99999C13.25 1.69999 13.43 1.41999 13.71 1.30999C13.99 1.18999 14.31 1.25999 14.53 1.46999L22.53 9.46999C22.74 9.67999 22.81 10.01 22.69 10.29C22.58 10.57 22.3 10.75 22 10.75ZM14.75 3.80999V5.99999C14.75 8.57999 15.42 9.24999 18 9.24999H20.19L14.75 3.80999Z" />
<path class="primary-part" d="M9.6499 18.71C9.2099 18.71 8.7899 18.54 8.4799 18.23L6.0199 15.77C5.4799 15.23 5.3899 14.32 5.8099 13.68L6.9399 11.98C7.2199 11.55 7.7999 11.24 8.3199 11.24H10.9699C11.4799 11.24 12.0599 11.55 12.3499 11.98L13.4799 13.67C13.8999 14.3 13.8099 15.22 13.2699 15.76L10.8099 18.22C10.5099 18.54 10.0899 18.71 9.6499 18.71ZM8.3299 12.75C8.2899 12.76 8.2099 12.8 8.1899 12.83L7.0699 14.52C7.0399 14.56 7.0499 14.68 7.0899 14.72L9.5499 17.18C9.5999 17.23 9.7199 17.23 9.7699 17.18L12.2299 14.72C12.2699 14.68 12.2799 14.57 12.2499 14.52L11.1199 12.83C11.0999 12.81 11.0199 12.77 10.9799 12.76L8.3299 12.75Z"/>
</svg>
